<svg width="48" height="48" viewBox="0 0 48 48" fill="none" xmlns="http://www.w3.org/2000/svg">
<path d="M24 48C37.2548 48 48 37.2548 48 24C48 10.7452 37.2548 0 24 0C10.7452 0 0 10.7452 0 24C0 37.2548 10.7452 48 24 48Z" fill="white"/>
<path d="M37.5273 6.10911C33.8182 3.31639 29.2364 1.6582 24.1746 1.6582C11.8691 1.6582 1.92004 11.6509 1.92004 23.9128C1.92004 28.6691 3.44732 33.2946 6.28368 37.1346C21.2946 32.7273 33.0328 21.0764 37.571 6.10911" fill="#EB1933"/>
<path d="M42.7636 12.2182C44.64 18.5018 42.72 25.0909 37.0909 29.4109C30.3709 34.3418 20.5091 34.3855 6.98181 38.5746C14.7054 48.1309 28.7127 49.6146 38.2691 41.8909C47.2582 34.6473 49.1782 21.7309 42.7636 12.1746" fill="#2151A1"/>
</svg>
